<?xml version="1.0" encoding="UTF-8" standalone="no"?>
<!DOCTYPE svg PUBLIC "-//W3C//DTD SVG 1.1//EN" "http://www.w3.org/Graphics/SVG/1.1/DTD/svg11.dtd">
<svg width="100%" height="100%" viewBox="0 0 169 254" version="1.1" xmlns="http://www.w3.org/2000/svg" xmlns:xlink="http://www.w3.org/1999/xlink" xml:space="preserve" xmlns:serif="http://www.serif.com/" style="fill-rule:evenodd;clip-rule:evenodd;stroke-linejoin:round;stroke-miterlimit:2;">
    <g transform="matrix(4.16667,0,0,4.16667,-655.346,-2140.82)">
        <path d="M197.833,513.796L157.283,513.796L157.283,574.622L197.833,574.622L197.833,513.796Z" style="fill:white;fill-rule:nonzero;"/>
    </g>
    <g transform="matrix(4.16667,0,0,4.16667,-655.346,-2140.82)">
        <rect x="157.872" y="514.449" width="39.372" height="59.523" style="fill:rgb(35,31,32);fill-rule:nonzero;"/>
    </g>
    <g transform="matrix(4.16667,0,0,4.16667,-655.346,-2140.82)">
        <rect x="159.853" y="516.564" width="35.126" height="9.869" style="fill:white;fill-rule:nonzero;"/>
    </g>
    <g transform="matrix(4.16667,0,0,4.16667,-655.346,-2140.82)">
        <rect x="159.837" y="528.587" width="35.146" height="36.284" style="fill:white;fill-rule:nonzero;"/>
    </g>
    <g transform="matrix(4.16667,0,0,4.16667,-655.346,-2140.82)">
        <path d="M159.844,571.824L159.844,567.007L166.9,567.007L166.9,568.134L162.679,568.134L162.679,568.823L166.251,568.823L166.251,569.946L162.679,569.946L162.679,570.701L167.064,570.701L167.064,571.824L159.844,571.824Z" style="fill:white;fill-rule:nonzero;"/>
    </g>
    <g transform="matrix(4.16667,0,0,4.16667,-655.346,-2140.82)">
        <path d="M173.059,568.41C173.014,568.248 172.856,568.142 172.65,568.084C172.449,568.023 172.198,567.995 171.918,567.995C171.294,567.995 171.015,568.096 171.015,568.276C171.015,568.989 175.991,568.542 175.991,570.294C175.991,571.409 174.318,571.954 171.942,571.954C169.658,571.954 168.17,571.212 168.109,570.342L170.824,570.342C170.885,570.515 171.053,570.639 171.294,570.721C171.522,570.801 171.819,570.843 172.1,570.843C172.809,570.843 173.28,570.717 173.28,570.489C173.28,569.759 168.301,570.26 168.301,568.424C168.301,567.4 169.888,566.887 172.052,566.887C174.453,566.887 175.548,567.568 175.755,568.41L173.059,568.41Z" style="fill:white;fill-rule:nonzero;"/>
    </g>
    <g transform="matrix(4.16667,0,0,4.16667,-655.346,-2140.82)">
        <path d="M180.236,570.146L180.236,571.824L177.401,571.824L177.401,567.007L181.487,567.007C184.367,567.007 185.318,567.448 185.318,568.384C185.318,568.941 184.875,569.404 183.865,569.565C184.777,569.749 185.331,569.863 185.331,570.835C185.331,571.461 185.294,571.679 185.63,571.679L185.63,571.824L182.756,571.824C182.685,571.717 182.614,571.409 182.614,570.982C182.614,570.35 182.422,570.146 181.101,570.146L180.236,570.146ZM180.236,569.096L181.35,569.096C182.227,569.096 182.698,568.969 182.698,568.637C182.698,568.298 182.218,568.134 181.557,568.134L180.236,568.134L180.236,569.096Z" style="fill:white;fill-rule:nonzero;"/>
    </g>
    <g transform="matrix(4.16667,0,0,4.16667,-655.346,-2140.82)">
        <path d="M187.06,571.824L187.06,567.007L191.195,567.007C193.143,567.007 194.693,567.268 194.693,568.222C194.693,568.719 194.114,569.08 193.563,569.268C194.499,569.404 195.001,569.855 195.001,570.372C195.001,571.445 193.527,571.824 191.276,571.824L187.06,571.824ZM189.893,569.813L189.893,570.701L191.13,570.701C191.833,570.701 192.36,570.619 192.36,570.26C192.36,569.839 191.701,569.813 190.795,569.813L189.893,569.813ZM189.893,568.134L189.893,568.941L191.074,568.941C191.639,568.941 192.049,568.795 192.049,568.52C192.049,568.142 191.491,568.134 190.895,568.134L189.893,568.134Z" style="fill:white;fill-rule:nonzero;"/>
    </g>
    <g transform="matrix(4.16667,0,0,4.16667,-655.346,-2140.82)">
        <path d="M162.77,537.392L189.96,530.61L192.051,537.857L183.315,540.034L189.174,560.395L179.452,562.82L173.59,542.459L164.858,544.638L162.77,537.392Z" style="fill:rgb(35,31,32);fill-rule:nonzero;"/>
    </g>
    <g transform="matrix(4.16667,0,0,4.16667,-655.346,-2140.82)">
        <path d="M186.731,518.702L189.04,518.702L191.718,521.751L191.625,520.477L191.625,518.702L193.986,518.702L193.986,524.287L191.68,524.287L188.997,521.245L189.042,522.563L189.092,524.287L186.731,524.287L186.731,518.702Z" style="fill:rgb(35,31,32);fill-rule:nonzero;"/>
    </g>
    <g transform="matrix(4.16667,0,0,4.16667,-655.346,-2140.82)">
        <path d="M178.413,518.702L184.536,518.702L184.536,519.999L180.873,519.999L180.873,520.803L183.973,520.803L183.973,522.107L180.873,522.107L180.873,522.982L184.682,522.982L184.682,524.287L178.413,524.287L178.413,518.702Z" style="fill:rgb(35,31,32);fill-rule:nonzero;"/>
    </g>
    <g transform="matrix(4.16667,0,0,4.16667,-655.346,-2140.82)">
        <path d="M169.806,518.702L175.931,518.702L175.931,519.999L172.268,519.999L172.268,520.803L175.365,520.803L175.365,522.107L172.268,522.107L172.268,522.982L176.079,522.982L176.079,524.287L169.806,524.287L169.806,518.702Z" style="fill:rgb(35,31,32);fill-rule:nonzero;"/>
    </g>
    <g transform="matrix(4.16667,0,0,4.16667,-655.346,-2140.82)">
        <path d="M160.828,518.702L167.715,518.702L167.715,520.167L165.506,520.167L165.506,524.287L163.039,524.287L163.039,520.167L160.828,520.167L160.828,518.702Z" style="fill:rgb(35,31,32);fill-rule:nonzero;"/>
    </g>
</svg>
