<svg class="css-10whgbn" viewBox="0 0 337 336" version="1.1" xml:space="preserve" style="fill-rule:evenodd;clip-rule:evenodd;stroke-linejoin:round;stroke-miterlimit:2"><path d="M71.911,1.07c-33.45,6 -60.375,30.75 -68.85,63.3c-3.075,11.775 -3.3,18.675 -2.925,109.875c0.15,83.7 0.225,85.65 1.65,92.175c7.725,34.875 32.475,59.7 67.725,67.875c4.575,1.05 10.425,1.275 48.075,1.425c38.925,0.3 42.975,0.225 44.025,-0.825c1.05,-1.05 1.125,-14.475 1.125,-166.65c0,-112.875 -0.225,-165.975 -0.675,-166.95c-0.675,-1.275 -1.875,-1.35 -42.675,-1.275c-33.15,0.075 -43.125,0.3 -47.475,1.05Zm62.925,166.95l0,140.925l-28.35,-0.375c-26.1,-0.3 -28.875,-0.45 -34.125,-1.725c-22.425,-5.775 -39,-23.025 -43.725,-45.525c-1.5,-7.05 -1.5,-180.075 -0.075,-186.975c4.2,-19.575 17.775,-35.775 36,-43.05c9.15,-3.675 13.425,-4.125 43.2,-4.2l26.925,-0.075l0,141l0.15,0Zm-56.925,-98.4c-4.35,0.825 -11.025,4.2 -14.625,7.275c-7.275,6.3 -10.95,15.3 -10.35,25.875c0.3,5.475 0.6,6.975 2.85,11.4c3.3,6.75 8.175,11.7 14.925,15c4.65,2.325 5.85,2.55 11.925,2.775c5.475,0.225 7.425,0 11.1,-1.275c15.075,-5.1 24.225,-19.725 21.6,-34.8c-2.925,-17.775 -19.95,-29.775 -37.425,-26.25Zm118.65,-69.225c-0.3,0.225 -0.45,75.6 -0.45,167.625c0,151.725 0.075,167.1 1.125,167.55c1.875,0.675 55.875,0.45 62.55,-0.3c28.275,-3.225 53.25,-20.4 66.75,-45.9c1.725,-3.3 4.05,-8.775 5.25,-12.15c4.35,-13.05 4.275,-9.6 4.275,-109.575c0,-79.8 -0.15,-91.725 -1.125,-96.75c-6.9,-36.225 -34.575,-63.6 -70.875,-69.825c-4.875,-0.825 -12.375,-1.05 -36.6,-1.05c-16.8,-0.075 -30.675,0.15 -30.9,0.375Zm74.325,151.575c10.875,2.85 19.725,11.1 23.4,21.675c2.325,6.525 2.25,16.125 -0.075,22.125c-4.275,11.025 -12.6,18.75 -23.325,21.6c-17.4,4.5 -35.925,-6 -40.95,-23.25c-1.5,-5.25 -1.425,-14.175 0.3,-19.65c5.175,-17.025 23.25,-27.075 40.65,-22.5Z" style="fill-rule:nonzero"></path></svg>