<svg class="css-1ff43ho" viewBox="0 0 134 133"><path d="M66.87 0.189998C79.036 0.139615 90.9732 3.49629 101.33 9.88C101.388 9.90996 101.431 9.96115 101.452 10.0227C101.472 10.0843 101.468 10.1515 101.44 10.21C101.41 10.2651 101.361 10.307 101.301 10.3274C101.242 10.3477 101.177 10.3451 101.12 10.32C88.32 7.55 68.85 18.62 67 19.73C66.9615 19.7644 66.9117 19.7835 66.86 19.7835C66.8084 19.7835 66.7585 19.7644 66.72 19.73C61.84 16.92 43.84 7.48 32.5 10.39C32.443 10.4042 32.3827 10.3979 32.3299 10.3721C32.2771 10.3463 32.235 10.3027 32.2111 10.2489C32.1872 10.1952 32.1831 10.1348 32.1993 10.0783C32.2156 10.0218 32.2512 9.97283 32.3 9.94C42.6781 3.51424 54.6538 0.135694 66.86 0.189998"></path><path d="M20.45 19.23L20.39 19.29C8.94433 30.6015 2.00703 45.6922 0.873467 61.7443C-0.260095 77.7963 4.48759 93.7122 14.23 106.52C14.2684 106.577 14.3251 106.618 14.3906 106.638C14.4561 106.659 14.5264 106.656 14.59 106.63C14.6414 106.592 14.6777 106.537 14.6924 106.475C14.707 106.412 14.6991 106.347 14.67 106.29C9.66998 90.68 35.4 52.84 48.72 36.98C48.7743 36.9261 48.8094 36.8558 48.82 36.78C48.8158 36.736 48.8021 36.6935 48.7796 36.6555C48.7571 36.6174 48.7265 36.5848 48.69 36.56C26.29 14.24 20.3 19.34 20.39 19.27"></path><path d="M113.29 19.23L113.35 19.29C124.794 30.6026 131.73 45.6931 132.863 61.7445C133.997 77.796 129.25 93.7114 119.51 106.52C119.473 106.578 119.416 106.621 119.35 106.641C119.284 106.662 119.213 106.657 119.15 106.63C119.101 106.59 119.067 106.535 119.053 106.473C119.039 106.412 119.045 106.348 119.07 106.29C124.07 90.68 98.36 52.81 85.07 36.95C85.0181 36.8983 84.9832 36.832 84.97 36.76C84.9719 36.7141 84.9847 36.6693 85.0073 36.6293C85.0299 36.5893 85.0616 36.5553 85.1 36.53C107.51 14.21 113.45 19.35 113.37 19.28"></path><path d="M66.87 53.3C66.9485 53.3112 67.0218 53.3461 67.08 53.4C86.88 68.47 120.76 105.73 110.41 116.26C98.3594 126.82 82.8826 132.641 66.86 132.641C50.8374 132.641 35.3606 126.82 23.31 116.26C12.98 105.73 46.86 68.47 66.64 53.4C66.7059 53.346 66.7855 53.3114 66.87 53.3Z"></path></svg>