<svg class="css-10whgbn" viewBox="0 0 246 234" version="1.1" xml:space="preserve" style="fill-rule:evenodd;clip-rule:evenodd;stroke-linejoin:round;stroke-miterlimit:2"><g id="g10" transform="matrix(4.34856,0,0,-4.34856,-987,629.898)"><g id="g14"><g id="g16"><g id="g741" transform="matrix(0.98187,0,0,0.98187,281.817,95.576)"><path id="path761" d="M-0.004,48.485C-0.746,49.229 -1.776,49.689 -2.91,49.689L-51.225,49.689C-52.359,49.689 -53.389,49.229 -54.131,48.485C-54.875,47.743 -55.337,46.711 -55.337,45.578L-55.337,0C-55.337,-1.134 -54.875,-2.166 -54.131,-2.908C-53.389,-3.651 -52.359,-4.113 -51.225,-4.113L-2.91,-4.113C-1.776,-4.113 -0.746,-3.651 -0.004,-2.908C0.74,-2.166 1.202,-1.134 1.202,0L1.202,45.578C1.202,46.711 0.74,47.743 -0.004,48.485" style="fill:#6d3370;fill-opacity:0;fill-rule:nonzero"></path></g><g id="g50" transform="matrix(1,0,0,1,243.818,110.312)"><path id="path52" d="M0,0L-6.577,0C-7.093,0 -7.507,-0.419 -7.507,-0.935C-7.507,-0.935 -7.505,-0.935 -7.505,-0.941L-7.507,-0.941L-7.507,-5.634L-7.505,-5.634L-7.507,-5.638C-7.507,-6.152 -7.093,-6.575 -6.577,-6.575L0,-6.575L0,-9.706L-8.207,-9.706L-8.207,-9.698C-9.55,-9.698 -10.636,-8.612 -10.636,-7.273L-10.636,0.707C-10.636,2.039 -9.55,3.125 -8.207,3.125L0,3.125L0,0Z" style="fill-rule:nonzero"></path></g><g id="g54" transform="matrix(1,0,0,1,246.192,119.026)"><path id="path56" d="M0,0C0,-1.365 -1.103,-2.463 -2.462,-2.463L-13.018,-2.463L-13.018,0.71L-4.118,0.71C-3.594,0.71 -3.174,1.138 -3.174,1.659L-3.174,12.147C-3.174,12.67 -3.594,13.094 -4.118,13.094L-8.901,13.094C-9.424,13.094 -9.845,12.67 -9.845,12.147L-9.845,7.374C-9.845,6.85 -9.424,6.425 -8.901,6.425L-5.08,6.425L-5.08,3.252L-10.557,3.252C-11.919,3.252 -13.018,4.352 -13.018,5.713L-13.018,13.807C-13.018,15.167 -11.919,16.269 -10.557,16.269L-2.462,16.269C-1.103,16.269 0,15.167 0,13.807L0,0Z" style="fill-rule:nonzero"></path></g><g id="g58" transform="matrix(1,0,0,1,277.298,100.614)"><path id="path60" d="M0,0L-3.128,0L-3.128,9.698L-5.326,9.698C-5.843,9.698 -6.257,9.279 -6.257,8.763L-6.257,0L-9.385,0L-9.385,9.698L-11.584,9.698C-12.102,9.698 -12.516,9.279 -12.516,8.763L-12.516,-0.008L-15.643,-0.008L-15.643,10.405C-15.643,11.737 -14.56,12.823 -13.217,12.823L0,12.823L0,0Z" style="fill-rule:nonzero"></path></g><g id="g62" transform="matrix(1,0,0,1,277.307,119.026)"><path id="path64" d="M0,0C0,-1.365 -1.104,-2.463 -2.461,-2.463L-13.018,-2.463L-13.018,0.71L-4.118,0.71C-3.592,0.71 -3.17,1.138 -3.17,1.659L-3.17,12.147C-3.17,12.67 -3.592,13.094 -4.118,13.094L-8.9,13.094C-9.418,13.094 -9.841,12.67 -9.841,12.147L-9.841,7.374C-9.841,6.85 -9.418,6.425 -8.9,6.425L-5.081,6.425L-5.081,3.252L-10.555,3.252C-11.917,3.252 -13.018,4.352 -13.018,5.713L-13.018,13.807C-13.018,15.167 -11.917,16.269 -10.555,16.269L-2.461,16.269C-1.104,16.269 0,15.167 0,13.807L0,0Z" style="fill-rule:nonzero"></path></g><g id="g66" transform="matrix(1,0,0,1,258.569,131.166)"><path id="path68" d="M0,0.008L0,-4.765C0,-5.289 -0.411,-5.715 -0.936,-5.715L-5.717,-5.715C-6.242,-5.715 -6.662,-5.289 -6.662,-4.765L-6.662,0.008C-6.662,0.531 -6.242,0.954 -5.717,0.954L-0.936,0.954C-0.411,0.954 0,0.531 0,0.008ZM0.721,4.129L-7.377,4.129C-8.737,4.129 -9.836,3.027 -9.836,1.667L-9.836,-6.427C-9.836,-7.787 -8.737,-8.888 -7.377,-8.888L0.721,-8.888C2.077,-8.888 3.181,-7.787 3.181,-6.427L3.181,1.667C3.181,3.027 2.077,4.129 0.721,4.129" style="fill-rule:nonzero"></path></g><g id="g70" transform="matrix(1,0,0,1,256.022,109.371)"><path id="path72" d="M0,0.006L0,-4.693C0,-5.209 -0.414,-5.63 -0.928,-5.63C-0.933,-5.63 -0.934,-5.625 -0.939,-5.625L-0.939,-5.63L-5.631,-5.63L-5.631,-5.625C-5.631,-5.625 -5.636,-5.63 -5.641,-5.63C-6.157,-5.63 -6.571,-5.209 -6.571,-4.693L-6.571,0.006C-6.571,0.522 -6.157,0.941 -5.641,0.941L-0.928,0.941C-0.414,0.941 0,0.522 0,0.006ZM0.703,4.066L-7.273,4.066C-8.616,4.066 -9.7,2.98 -9.7,1.648L-9.7,-6.332C-9.7,-7.671 -8.616,-8.757 -7.273,-8.757L0.703,-8.757C2.041,-8.757 3.127,-7.671 3.127,-6.332L3.127,1.648C3.127,2.98 2.041,4.066 0.703,4.066" style="fill-rule:nonzero"></path></g><g id="g74" transform="matrix(1,0,0,1,282.308,95.1629)"><path id="path76" d="M0,0C0,-0.806 -0.325,-1.53 -0.853,-2.059C-1.381,-2.586 -2.106,-2.91 -2.91,-2.91L-51.225,-2.91C-52.03,-2.91 -52.754,-2.586 -53.282,-2.059C-53.81,-1.53 -54.133,-0.806 -54.135,0L-54.135,45.578C-54.133,46.383 -53.81,47.106 -53.282,47.635C-52.754,48.162 -52.03,48.486 -51.225,48.487L-2.91,48.487C-2.106,48.486 -1.381,48.162 -0.853,47.635C-0.325,47.106 0,46.383 0,45.578L0,0ZM-0.004,48.485C-0.746,49.229 -1.776,49.689 -2.91,49.689L-51.225,49.689C-52.359,49.689 -53.389,49.229 -54.131,48.485C-54.875,47.743 -55.337,46.711 -55.337,45.578L-55.337,0C-55.337,-1.134 -54.875,-2.166 -54.131,-2.908C-53.389,-3.651 -52.359,-4.113 -51.225,-4.113L-2.91,-4.113C-1.776,-4.113 -0.746,-3.651 -0.004,-2.908C0.74,-2.166 1.202,-1.134 1.202,0L1.202,45.578C1.202,46.711 0.74,47.743 -0.004,48.485" style="fill-rule:nonzero"></path></g></g></g></g></svg>